<svg xmlns="http://www.w3.org/2000/svg" width="100%" height="100%" viewBox="0 0 500 500" fill-rule="evenodd" stroke-linecap="round" stroke-linejoin="round" stroke-miterlimit="1.5" xmlns:v="https://vecta.io/nano"><style><![CDATA[.B{fill-rule:nonzero}]]></style><path d="M500 75c0-41.394-33.606-75-75-75H75C33.606 0 0 33.606 0 75v350c0 41.394 33.606 75 75 75h350c41.394 0 75-33.606 75-75V75z" fill="url(#A)" stroke="#000" stroke-width="4"/><path d="M135.867 283.82l24.626-25.33c-8.795-1.76-16.887-5.277-24.275-10.202l-.35 35.532M216.78 88.922l-24.626 25.33c8.795 1.76 16.886 5.277 24.274 10.203l.352-35.532M78.875 226.828l35.532-.352c-4.926-7.388-8.444-15.48-10.203-24.274l-25.33 24.626m194.9-80.914l-35.532.35c4.573 7.388 8.1 15.48 10.202 24.275l25.33-24.626m-194.898.001l25.33 24.626c1.76-8.795 5.277-16.887 10.203-24.275l-35.532-.35m194.897 80.913l-25.33-24.626c-1.76 8.795-5.277 16.886-10.202 24.274l35.532.352M135.867 88.922l.35 35.532c7.388-4.574 15.48-8.092 24.275-10.203l-24.626-25.33m80.914 194.9l-.352-35.532c-7.388 4.925-15.48 8.443-24.274 10.202l24.626 25.33" fill="#ffe62e" class="B"/><g fill="#ffce31"><path d="M115.814 228.587l-14.072 32.718 32.717-14.072c-7.388-5.277-13.72-11.6-18.645-18.646m121.02-84.432l14.072-32.718-32.366 14.072c7.036 5.277 13.368 11.6 18.294 18.646m-132.98 29.2l-33.07 13.017 33.07 13.017c-1.056-4.222-1.408-8.444-1.408-13.017s.352-8.795 1.408-13.017m144.942 26.034l33.07-13.017-33.07-13.017c.704 4.222 1.407 8.795 1.407 13.017 0 4.573-.352 8.795-1.407 13.017" class="B"/><path d="M134.108 125.86L101.4 111.8l14.072 32.717c5.277-7.387 11.6-13.72 18.646-18.645M218.54 246.88l32.718 14.072-14.072-32.718c-5.278 7.388-11.6 13.72-18.646 18.646" class="B"/><path d="M189.34 113.9l-13.016-33.07-13.017 33.07c4.222-.704 8.795-1.408 13.017-1.408s8.795.352 13.016 1.408m-26.033 144.942l13.017 33.07 13.016-33.07c-4.22 1.055-8.443 1.407-13.016 1.407s-8.795-.352-13.017-1.407" class="B"/><circle cx="176.324" cy="186.371" r="66.842"/></g><g fill="#fcc21b"><path d="M397.326 227.42c-6.58-5.963-13.914-11.222-21.847-15.638-1.53-.86-3.518-.615-4.767.58s-1.46 3.043-.5 4.45c27.493 40.334 21.618 92.383-14.266 126.596-20.932 19.965-48.988 30.96-78.997 30.96-20.035 0-39.648-5.03-56.7-14.547-1.53-.862-3.518-.633-4.767.58-1.25 1.196-1.46 3.026-.493 4.45 4.943 7.247 10.766 13.948 17.344 19.912 22.18 20.14 51.486 31.24 82.498 31.24 32.137 0 62.163-11.786 84.59-33.175 22.04-21.003 33.966-48.743 33.58-78.1s-13.052-56.816-35.655-77.31z" class="B"/><path d="M386.424 148.153L136.677 397.9l9.712 9.71 249.747-249.747-9.712-9.712z"/></g><defs><linearGradient id="A" x1="0" y1="250" x2="500" y2="250" gradientUnits="userSpaceOnUse"><stop offset="0"/><stop offset=".26" stop-color="#12142d"/><stop offset=".5" stop-color="#191b3e"/><stop offset=".74" stop-color="#12142d"/><stop offset="1"/></linearGradient></defs></svg>
